# xmcd
#
# Track frame offsets:
#	150
#	15173
#	28601
#	41393
#
# Disc length: 1463 seconds
# Revision: 0
# Processed by: cddbd v1.5.2PL0 Copyright (c) Steve Scherf et al.
# Submitted via: dBpowerAMP V12.0
#
DISCID=1d05b504
DTITLE=Fried Okra Jones - Fried Okra Jones
DYEAR=2000
DGENRE=Blues
TTITLE0=(They Call Me) Watermelon Slim
TTITLE1=She Makes Me Earn My Money
TTITLE2=Pay For My Liquor
TTITLE3=Interview
EXTD=
EXTT0=
EXTT1=
EXTT2=
EXTT3=
PLAYORDER=
